<svg xmlns="http://www.w3.org/2000/svg" width="1288.497" height="1677.267" viewBox="0 0 1288.497 1677.267">
  <g id="Symbols" transform="translate(12.002 1.002)">
    <g id="Scene_Plants" data-name="Scene/Plants" transform="translate(-12.002 -1.002)">
      <path id="Leaf-Bottom" d="M680.66,923.1c18.65,8.06,42.331-3.666,30.976-26.962-12.167-24.944-52.214-23.163-74.8-21.471,2.27,0,10.782,23.015,13.462,26.418C658.208,911.134,669.2,918.139,680.66,923.1ZM447.269,476.638C442.478,472.958,446.877,476.29,447.269,476.638ZM692.123,806.784c10.208-8.69,9.964-23.071.767-32.331-10.952-11.026-29.821-9.616-43.864-7.75-6.354.844-40.269,5.358-31.9,10.508a27.513,27.513,0,0,1-3.388-1.4q-1.339-4.038-2.777-8.035c.193-.126.359-.263.567-.389-.226.111-.385.23-.581.344a312.984,312.984,0,0,0-39.151-75.1,73.817,73.817,0,0,0,17.876,3.784c17.887,1.318,54.542-14.451,33.427-37.07-20.246-21.682-48.641,4.206-70.1,8.7-22.511-28.18-47.115-55.031-72.777-80.882a5.78,5.78,0,0,0,3.38-3.132c9.986,4.425,20.49,10.952,29.587,12.393,13.133,2.073,39.854,2.347,49.059-9.793,11.326-14.929-2.225-25.859-16.632-27.854-20.894-2.892-47.437,8.631-66.983,16.5a6.585,6.585,0,0,0-6.139,2.414c-.43.167-.863.329-1.285.492-25.962-25.707-52.821-50.47-79.49-74.673.27,0,.541,0,.822,0a68.959,68.959,0,0,0,21.893,8.634c18,3.4,38.91,2.325,52.661-11.293,13.7-13.555,17.613-36.219,2-49.818-31.261-27.221-71.656,40.7-86.518,44.223-27.092-24.318-55.568-46.878-84.452-68.927a49.41,49.41,0,0,0,9.793,1.466c27.247,1.174,89.147-35.4,54.157-66.361-30.491-26.977-61.174,29.632-83.537,50.04-27.2-20.538-54.539-40.917-81.186-62.184,14.081,2.958,27.529,2.8,42.18-2.477,15.158-5.469,39.406-18.406,28.58-38.692-11.015-20.631-40.358-9.442-55.55-1.911-8.29,4.106-24.641,17.358-39.3,23.345-42.639-36.23-80.046-76.632-109.3-125.006a448.018,448.018,0,0,1-43.294-96.4C13.859,86.673.766,50.681,1.518,22.215c-7.687,57.3,15.162,124.439,38.588,174.068,21.542,45.634,52.262,85.078,87.666,120.178-7.076,25.7-75.865,65.85-32.371,87.106,23.1,11.234,45-10.563,48.77-32.631,2.584-15.166-3.536-33.727-9.749-47.989q16.678,16.023,34.467,30.9c16.347,13.711,33.049,26.981,49.9,40.065-25.248,26.34-46.641,98.973-10.427,108.77,53.476,14.422,23.063-81.534,18.439-99.573a2.872,2.872,0,0,0-2.4,1.055c.211-1.685.459-3.488.781-5.309,32.231,24.9,64.895,49.262,96.585,74.829-2.621,2.159-6.554,10.089-9.745,14.366-7.205,9.645-14.055,19.683-18.865,30.776-7.6,17.532-14.362,45.212,8.679,54.08,25.059,9.667,35.078-21.764,34.286-40.162-.548-12.722-4.647-24.618-7.1-36.989-.766-3.858.485-21.493-4.417-13.677a37.138,37.138,0,0,0-.163-6.228q8.536,6.92,16.961,13.992a6.6,6.6,0,0,0-.363,2.136c0,5.5,5.628,7.32,9.412,5.509q11.136,9.525,22.019,19.364c15.343,13.936,30.924,28.28,46.415,42.953-3.044,2.9-1.577,6.628-4.4,9.69s-8.6,4.965-11.956,7.838c-8.442,7.238-15.218,17.495-19.986,27.488-7.868,16.51-17.358,50.777,8.486,57.094,26.64,6.528,38.255-26.588,38.881-46.945.122-3.947-4.673-39.173-7.6-51.9,28.673,27.277,56.956,55.649,82.752,84.674-7.335.452-27.358,16.584-31.353,20.9-9.738,10.549-24.9,33.523-6.287,44.283,16.547,9.542,35.482-6.528,41.558-21.5,1-2.466,3.791-25.07,3.576-35.134,10.693,12.318,20.927,24.741,30.5,37.237q9.575,12.463,18.046,25.625a12.027,12.027,0,0,0-3.347,3.662c-26.451,5.928-58.3,49.352-26.188,62.2,15.288,6.105,30.728-8.964,37.429-20.99,1.374-2.458,3.169-14.562,4.65-24.111,16.488,29.147,29.547,60.233,39.925,92.264a5.834,5.834,0,0,0-4.266,5.646c-12.57,8.064-22.482,14.751-30.783,29.432-5.158,9.116-14.218,29.806,2.547,33.838,21.823,5.246,33.6-28.28,34.511-44.538.107-1.888-.189-7.346-.522-12.344a7.228,7.228,0,0,0,2.24-.155c5.987,19.857,11,40.025,15.2,60.27-11.533,4.391-10.334,66.091-2.062,74.451,18.483,18.72,29.31-10.289,27.591-25.233-2.025-17.62-10.882-33.282-21.167-47.056-1.1-1.455-.807-1.4-.959.722a4.267,4.267,0,0,0-1.137-2.314c0-9.33.466-18.905-.426-27.118a628.81,628.81,0,0,0-11.756-70.152q-1.9-8.414-4.21-16.669a136.69,136.69,0,0,0,28.021,15.977C659.6,812.053,679.816,817.259,692.123,806.784ZM0,22.215C.17,13.959,1.259,6.354,3.7,0A173.332,173.332,0,0,0,0,22.215Z" transform="matrix(-0.999, -0.052, 0.052, -0.999, 713.617, 1020.933)" fill="#f2f2f2" fill-rule="evenodd"/>
      <g id="Plant-Right" transform="translate(336.463 193.974)" opacity="0.7">
        <path id="Leaf-Me-Alone_" data-name="Leaf-Me-Alone!" d="M247.719,877.357c-50.547-2.677-109.634-38.555-109.255-93.763.277-40.113,5.645-79.579,3.783-119.859-1.491-32.19-8.491-63.677-19.365-94-10.456-29.161-35.712-55.7-39.811-86.107-2.613-19.375,2.754-45.682,11.038-63.5,10.074-21.656,5.788-20.312-7.6-40.78-26.229-40.11-49.361-80.845-63.9-126.986C1.677,185.91-8.622,109.715,8.941,41.221,11.174,32.524,16.052.982,28.45.045,42.3-1,34.039,16.462,32.7,22.242,24.147,59.127,16.606,91.361,18.193,129.9c6.125,148.709,101.042,256.239,156.386,387.72,3.087,6.805,9.422,22.9,13.883,33.549,7.044,16.813,12.625,47.985,23.184,61.011,19.885,24.544,4.15-22.249.717-31.224-4.341-11.356-9.159-23.448-13.775-33.486-21.063-46.486-44.687-97.292-66.45-145.218,117.386-14.07,183.638,132.237,204.88,226.081,17.5,77.317,29.483,255.043-89.3,249.019" transform="matrix(-0.995, 0.105, -0.105, -0.995, 437.86, 1273.867)" fill="#69a1ac" fill-rule="evenodd"/>
        <path id="Leaf-Me-Alone_2" data-name="Leaf-Me-Alone!" d="M485.94,78.449c-84.5,6.7-138.75,62.464-164,140.456-13.611,42.028-15.173,85.2-22.737,128.4-11.374,64.98-35.856,114.228-83.7,160.524-14.818,14.336-25.74,29.058-33.5,44.808-15.41,15.725-28.824,33.519-38.681,55.275-12.589,27.784-16.151,61.122-1.618,88.821,3.91,7.45,13.659,22.4,23.763,29.187-37.829,80.568-58.63,168.807-56.286,256.935,1.418,53.195,4.014,106.415,7.046,159.547.815,14.266,5.461,37.825,12.437,13.9,6.387-21.886-1.622-56.242-2.362-79.1-3.606-111.377-6.687-212.645,39.158-316.7,4.81-10.908,9.908-21.727,15.214-32.457a10.59,10.59,0,0,0,.9-.611c.2.156.385.322.589.478.337-.607.8-1.326,1.344-2.129a28.958,28.958,0,0,0,4.117-5.772c4.065-5.635,8.668-12.259,8.694-15.884,0-.026-.015-.07-.015-.1,28.38-46.33,60.889-90.105,94.093-133.029-.248.315,36.018-49.066,30.413-21.76-2.7,13.163-29.38,38.221-40.154,52.162-23.833,31.009-51.821,70.3-75.077,108.3-3.129,1.8-7.55,10.626-10.749,17.206-1.766,3.332-3.414,6.69-5.032,9.619C272.2,763.743,336.3,708.9,380.013,645.113c.052-.078.1-.156.148-.23,13.3-17.624,26.929-35.126,43.953-49.059,28.4-23.252,58.815-27.354,92.3-38.8,91.32-31.2,130.145-149.55,142.474-237.364C672.8,220.6,604.751,68.68,485.94,78.449" transform="translate(291.353 209.367)" fill="#89c5cc" fill-rule="evenodd"/>
        <path id="Leaf-Me-Alone_3" data-name="Leaf-Me-Alone!" d="M363.173,8.449c-98.447,77.315-157.362,195.464-206.6,307.4-54.987,125.019-97.8,253.8-117.755,389.015C25.712,793.7,10.717,882.838,3.425,972.388A954.42,954.42,0,0,0,.151,1068.14c.051,2.621,1.445,73.87,14.43,59.137,7.385-8.379-1.308-73.888-1.159-84.578.851-60.192,7.491-120.015,16.227-179.533,14.382-98,25.2-195.984,48.879-292.306,3.532-14.384,6.861-29.543,12.33-43.327,5.813-14.658.2-8.694,13.026-13.015,12.467-4.206,26.744-1.348,39.854-6.976,52.017-22.33,87.029-93.538,112.995-139.842,29.7-52.948,51.362-110.817,70.241-168.278A1244.947,1244.947,0,0,0,361.766,71.512c2.932-13.687,5.024-28.137,9.653-41.349,1.248-3.564,5.832-9.536,6.154-12.8.685-6.913-2.9-11.538-2.421-17.361q-6.076,4.1-11.978,8.449" transform="translate(249.558 52.559) rotate(-8)" fill="#89c5cc" fill-rule="evenodd"/>
        <path id="Base" d="M38,328c0,149.276,121.011,270.287,270.287,270.287S578.573,477.276,578.573,328" transform="translate(99.472 885.006)" fill="#89c5cc" fill-rule="evenodd"/>
        <path id="Leaf-Me-Alone_4" data-name="Leaf-Me-Alone!" d="M127.281,501.822H113c.992-17.917,2.3-35.8,5.295-53.524C129.754,380.53,165.576,281,244.145,270c2.9-.407,13.563-.478,26.477.281a47.7,47.7,0,0,1,20.2-5.965c66.894-4.932,141.6,49.033,173.865,105.2,26.014,45.279,21.63,104.738,5.565,152.845-10.76,32.2-34.241,78.124-73.4,78.572-48.992.559-51.354-59.993-52.3-95.389-1.259-47.063-7.205-88.058-44.29-120.137-8.642-7.472-18.087-14.048-26.818-21.416-13.67-11.533-28.776-23.345-30.539-42.428-2.429-26.325,12.43-31.064,35.119-26.173,3.869.833,42.831,18.317,37.063,4.5-1.762-4.221-8.194-7.568-16.313-10.075-21.008-2.284-46.067-4.936-53.272-3.351-77.735,17.054-108,124.735-116.042,193.151C128.6,486.993,127.9,494.4,127.281,501.822Z" transform="translate(302.164 712.043)" fill="#69a1ac" fill-rule="evenodd"/>
      </g>
    </g>
  </g>
</svg>
