<svg xmlns="http://www.w3.org/2000/svg" width="169.366" height="154.638" viewBox="0 0 169.366 154.638">
  <path id="Icon_material-add-a-photo" data-name="Icon material-add-a-photo" d="M22.091,23.591V1.5H36.819V23.591H58.91V38.319H36.819V60.41H22.091V38.319H0V23.591ZM44.182,67.774V45.682H66.274V23.591H117.82L131.3,38.319h23.343a14.771,14.771,0,0,1,14.727,14.727v88.365a14.771,14.771,0,0,1-14.727,14.727H36.819a14.771,14.771,0,0,1-14.727-14.727V67.774Zm51.546,66.274A36.819,36.819,0,1,0,58.91,97.228,36.832,36.832,0,0,0,95.728,134.047ZM72.165,97.228A23.564,23.564,0,1,0,95.728,73.665,23.539,23.539,0,0,0,72.165,97.228Z" transform="translate(0 -1.5)" fill="#3d3d65"/>
</svg>
