<svg xmlns="http://www.w3.org/2000/svg" width="195.523" height="195.459" viewBox="0 0 195.523 195.459">
  <g id="Icon_ionic-ios-home" data-name="Icon ionic-ios-home" transform="translate(-3.374 -3.375)">
    <path id="Path_1" data-name="Path 1" d="M82.374,7.677a1.819,1.819,0,0,0-2.327,0L7.448,66.03a1.968,1.968,0,0,0-.7,1.449V175.022a.936.936,0,0,0,.931.935H57.942a.936.936,0,0,0,.931-.935v-65.46a.936.936,0,0,1,.931-.935h42.815a.936.936,0,0,1,.931.935v65.46a.936.936,0,0,0,.931.935H154.74a.936.936,0,0,0,.931-.935V67.48a1.891,1.891,0,0,0-.7-1.449Z" transform="translate(19.9 22.877)" fill="#c9c9c9"/>
    <path id="Path_2" data-name="Path 2" d="M196.351,79.093,107.549,5.7a10.067,10.067,0,0,0-12.874,0L56.006,38.132V17.675a.958.958,0,0,0-.94-.97H26.875a.958.958,0,0,0-.94.97V62.369L5.872,79.384a6.906,6.906,0,0,0-2.49,4.944,6.982,6.982,0,0,0,1.926,5.187A6.438,6.438,0,0,0,14.095,90L100.5,18.257a.824.824,0,0,1,.611-.194,1.113,1.113,0,0,1,.611.194l86.406,71.452a6.5,6.5,0,0,0,4.135,1.5,6.4,6.4,0,0,0,4.652-1.987,6.84,6.84,0,0,0,1.973-5.187A6.956,6.956,0,0,0,196.351,79.093Z" transform="translate(0)" fill="#c9c9c9"/>
  </g>
</svg>
